<svg width="80" height="80" fill="none" xmlns="http://www.w3.org/2000/svg"><path d="M40.14 40.328a19.798 19.798 0 1 0 0-39.596 19.798 19.798 0 0 0 0 39.596zM53.336 20.53a13.198 13.198 0 1 1-26.396 0 13.198 13.198 0 0 1 26.396 0zm26.397 52.793c0 6.599-6.6 6.599-6.6 6.599H7.145s-6.599 0-6.599-6.6c0-6.598 6.6-26.396 39.594-26.396 32.996 0 39.595 19.798 39.595 26.397zm-6.6-.027c-.006-1.623-1.016-6.506-5.49-10.98-4.302-4.303-12.4-8.79-27.505-8.79-15.111 0-23.202 4.487-27.504 8.79-4.475 4.474-5.478 9.357-5.49 10.98h65.99z" fill="#fff"/></svg>